<svg xmlns="http://www.w3.org/2000/svg"  viewBox="0 0 50 50" width="50px" height="50px"><path d="M 25 0 C 12.309534 0 2 10.309534 2 23 C 2 29.876948 5.0307951 36.052534 9.8203125 40.267578 L 7.4042969 44.496094 A 1.0001 1.0001 0 0 0 7.2734375 44.992188 L 7.2734375 49.021484 A 1.0001 1.0001 0 0 0 8.78125 49.882812 L 12.253906 47.837891 A 1.0001 1.0001 0 0 0 12.613281 47.472656 L 14.818359 43.615234 C 17.889244 45.135008 21.345036 46 25 46 C 28.654964 46 32.110756 45.135008 35.181641 43.615234 L 37.386719 47.472656 A 1.0001 1.0001 0 0 0 37.746094 47.837891 L 41.21875 49.882812 A 1.0001 1.0001 0 0 0 42.726562 49.021484 L 42.726562 44.992188 A 1.0001 1.0001 0 0 0 42.595703 44.496094 L 40.179688 40.267578 C 44.969205 36.052534 48 29.876948 48 23 C 48 10.309534 37.690466 0 25 0 z M 25 2 C 36.609534 2 46 11.390466 46 23 C 46 29.143841 43.366738 34.657782 39.167969 38.498047 L 37.082031 34.847656 C 39.850467 32.018013 41.68586 28.262889 41.947266 24.0625 A 1.0001 1.0001 0 0 0 40.949219 23 L 36.949219 23 A 1.0001 1.0001 0 0 0 35.953125 23.917969 C 35.786763 25.917235 34.970507 27.680496 33.875 29.234375 L 31.710938 25.447266 L 32.705078 24.458984 A 1.0001 1.0001 0 0 0 33 23.75 L 33 15 C 33 13.35503 31.64497 12 30 12 L 29 12 L 29 9 A 1.0001 1.0001 0 0 0 28 8 L 22 8 A 1.0001 1.0001 0 0 0 21 9 L 21 12 L 20 12 C 18.35503 12 17 13.35503 17 15 L 17 23.75 A 1.0001 1.0001 0 0 0 17.291016 24.455078 L 18.285156 25.455078 L 10.832031 38.498047 C 6.6332619 34.657782 4 29.143841 4 23 C 4 11.390466 13.390466 2 25 2 z M 23 10 L 27 10 L 27 13 A 1.0001 1.0001 0 0 0 28 14 L 30 14 C 30.56503 14 31 14.43497 31 15 L 31 23.333984 L 29.783203 24.544922 A 1.0001 1.0001 0 0 0 29.757812 24.570312 L 26.820312 27.490234 L 25.544922 28.757812 C 25.216083 29.085266 24.714818 29.085857 24.386719 28.755859 L 23.171875 27.535156 L 23.166016 27.527344 L 20.240234 24.583984 A 1.0001 1.0001 0 0 0 20.228516 24.572266 L 19 23.337891 L 19 15 C 19 14.43497 19.43497 14 20 14 L 22 14 A 1.0001 1.0001 0 0 0 23 13 L 23 10 z M 25 16 C 23.75 16 22.685226 16.504756 22.001953 17.273438 C 21.318681 18.042119 21 19.027778 21 20 C 21 20.972222 21.318681 21.957881 22.001953 22.726562 C 22.685226 23.495244 23.75 24 25 24 C 26.25 24 27.314774 23.495244 27.998047 22.726562 C 28.681319 21.957881 29 20.972222 29 20 C 29 19.027778 28.681319 18.042119 27.998047 17.273438 C 27.314774 16.504756 26.25 16 25 16 z M 25 18 C 25.749999 18 26.185226 18.245244 26.501953 18.601562 C 26.81868 18.957881 27 19.472222 27 20 C 27 20.527778 26.81868 21.042119 26.501953 21.398438 C 26.185226 21.754756 25.749999 22 25 22 C 24.250001 22 23.814774 21.754756 23.498047 21.398438 C 23.18132 21.042119 23 20.527778 23 20 C 23 19.472222 23.18132 18.957881 23.498047 18.601562 C 23.814774 18.245244 24.250001 18 25 18 z M 37.710938 25 L 39.779297 25 C 39.301959 28.523783 37.663259 31.680178 35.177734 33.990234 A 1.0001 1.0001 0 0 0 35.130859 34.039062 C 34.250179 34.850533 33.271653 35.557051 32.216797 36.140625 A 1.0001 1.0001 0 0 0 32.113281 36.1875 C 29.994005 37.339546 27.577786 38 25 38 C 22.422214 38 20.005995 37.339546 17.886719 36.1875 A 1.0001 1.0001 0 0 0 16.541016 36.570312 L 11.009766 46.25 L 9.2734375 47.271484 L 9.2734375 45.257812 L 19.748047 26.925781 L 21.210938 28.396484 L 18.521484 33.103516 A 1.0001 1.0001 0 0 0 18.919922 34.482422 C 20.734122 35.448551 22.805922 36 25 36 C 27.195064 36 29.265037 35.446006 31.078125 34.480469 L 31.082031 34.486328 C 32.38342 33.793916 33.553939 32.886007 34.544922 31.810547 L 34.541016 31.806641 C 36.239523 29.965467 37.299087 27.585894 37.710938 25 z M 30.242188 26.908203 L 32.560547 30.966797 C 32.071474 31.432366 31.544254 31.856769 30.976562 32.226562 L 28.773438 28.369141 L 30.242188 26.908203 z M 27.304688 29.828125 L 29.167969 33.091797 C 27.873005 33.632719 26.490462 34 25 34 C 23.508747 34 22.125041 33.633753 20.830078 33.09375 L 22.673828 29.869141 L 22.96875 30.166016 C 24.058651 31.262065 25.859917 31.266293 26.955078 30.175781 L 27.304688 29.828125 z M 35.59375 36.273438 L 40.726562 45.257812 L 40.726562 47.271484 L 38.990234 46.25 L 33.955078 37.4375 C 34.525534 37.081752 35.071183 36.692273 35.59375 36.273438 z M 17.851562 38.308594 C 20.034562 39.337201 22.429765 40 25 40 C 27.570235 40 29.965438 39.337201 32.148438 38.308594 L 34.189453 41.878906 C 31.413269 43.233981 28.301379 44 25 44 C 21.698621 44 18.586731 43.233981 15.810547 41.878906 L 17.851562 38.308594 z"/></svg>