<svg xmlns="http://www.w3.org/2000/svg" xmlns:xlink="http://www.w3.org/1999/xlink" viewBox="0,0,256,256" width="50px" height="50px"><g fill="none" fill-rule="nonzero" stroke="none" stroke-width="none" stroke-linecap="none" stroke-linejoin="none" stroke-miterlimit="10" stroke-dasharray="" stroke-dashoffset="0" font-family="none" font-weight="none" font-size="none" text-anchor="none" style="mix-blend-mode: normal"><g transform="scale(5.33333,5.33333)"><path d="M22.55,18.294c1.264,1.867 4.069,1.642 5.031,-0.398c1.097,-2.323 2.471,-4.616 6.419,-3.896c2.201,0.402 3,3 3,3l11,2.003c0,0 -9.312,-0.307 -11.382,0.727c0,0 -0.285,2.32 -3.858,5.571c-1.082,0.985 0.384,7.416 -5.363,9.593c-6.879,3.164 -6.994,1.64 -16.256,7.106c0,0 1.689,-1.648 -1.454,-1.419c0,0 3.436,-1.947 -0.851,-1.249c0,0 2.632,-1.615 -0.511,-2.429c0,0 7.143,-1.867 8.948,-3.444c0.462,-0.404 0.837,-1.716 1.155,-2.823l-3.539,3.58c0,0 0,0 0,-1.035c0,-1.035 -1.801,1.657 -1.801,1.657l-0.268,-1.657l-3.105,2.699c0,0 -0.271,-1.388 0.379,-2.574l-3.484,1.945c0,0 0.497,-2.459 1.591,-3.123l-2.63,1.224c0,0 0.195,-1.68 1.04,-2.24l-2.299,0.779c0,0 0.007,-1.287 1.041,-2.322l-1.807,0.634c0,0 0.359,-1.783 1.137,-2.035l-1.707,0.316c0,0 0.3,-1.696 1.551,-2.321l-2.289,0.45c0,0 0.35,-1.851 2.088,-2.526l-2.626,0.077c0,0 1.351,-1.963 2.739,-2.163l-3.051,0.138c0,0 1.163,-1.613 2.076,-1.851l-2.464,-0.101c0,0 0.725,-1.301 1.851,-1.663l-1.851,-0.088c0,0 0.588,-1.238 1.688,-1.563l-1.688,-0.35c0,0 1.501,-1.426 2.489,-1.413l-2.351,-0.45c0,0 1.025,-1.563 3.151,-1.463l-2.226,-1.038c0,0 1.413,-1.088 3.639,-0.65l-2.489,-1.489c0,0 1.576,-1.075 3.727,-0.263l-2.514,-1.95c0,0 1.163,-0.625 2.288,-0.163l-0.714,-2.644c8.889,3.232 13.79,9.217 16.55,13.294z" fill="#000000" stroke="none" stroke-width="1" stroke-linecap="butt" stroke-linejoin="miter"></path><circle cx="32.779" cy="17" r="1.061" fill="#000000" stroke="none" stroke-width="1" stroke-linecap="butt" stroke-linejoin="miter"></circle><circle cx="32.779" cy="17" r="1.061" fill="none" stroke="#ffffff" stroke-width="0.25" stroke-linecap="round" stroke-linejoin="round"></circle><path d="M37,17c0,0 -1.997,0.64 -3.16,0.414" fill="none" stroke="#ffffff" stroke-width="0.25" stroke-linecap="round" stroke-linejoin="round"></path><path d="M6.715,7.644c0,0 6.755,3.804 8.183,5.417" fill="none" stroke="#ffffff" stroke-width="0.25" stroke-linecap="round" stroke-linejoin="round"></path><path d="M6.94,9.757c0,0 7.037,3.408 8.401,5.335" fill="none" stroke="#ffffff" stroke-width="0.25" stroke-linecap="round" stroke-linejoin="round"></path><path d="M5.702,11.508c0,0 5.64,1.302 9.195,5.274" fill="none" stroke="#ffffff" stroke-width="0.25" stroke-linecap="round" stroke-linejoin="round"></path><path d="M4.289,13.196c0,0 6.045,0.91 10.101,5.344" fill="none" stroke="#ffffff" stroke-width="0.25" stroke-linecap="round" stroke-linejoin="round"></path><path d="M3.489,15.11c0,0 5.964,0.757 10.273,4.688" fill="none" stroke="#ffffff" stroke-width="0.25" stroke-linecap="round" stroke-linejoin="round"></path><path d="M2.688,16.873c0,0 4.343,-0.912 10.664,4.466" fill="none" stroke="#ffffff" stroke-width="0.25" stroke-linecap="round" stroke-linejoin="round"></path><path d="M2.851,18.524c0,0 4.715,-0.644 9.527,3.696" fill="none" stroke="#ffffff" stroke-width="0.25" stroke-linecap="round" stroke-linejoin="round"></path><path d="M3.464,20.287c0,0 3.609,-0.803 7.677,2.53" fill="none" stroke="#ffffff" stroke-width="0.25" stroke-linecap="round" stroke-linejoin="round"></path><path d="M4.439,22c0,0 2.75,-0.458 5.328,1.61" fill="none" stroke="#ffffff" stroke-width="0.25" stroke-linecap="round" stroke-linejoin="round"></path><path d="M4.326,24.089c0,0 1.188,-1.177 4.298,0.17" fill="none" stroke="#ffffff" stroke-width="0.25" stroke-linecap="round" stroke-linejoin="round"></path><path d="M4.527,26.164c0,0 1.045,-1.266 3.944,-0.65" fill="none" stroke="#ffffff" stroke-width="0.25" stroke-linecap="round" stroke-linejoin="round"></path><path d="M4.683,28.169c0,0 1.664,-2.175 5.751,-1.559" fill="none" stroke="#ffffff" stroke-width="0.25" stroke-linecap="round" stroke-linejoin="round"></path><path d="M5.353,29.569c0,0 1.951,-2.114 5.787,-1.863" fill="none" stroke="#ffffff" stroke-width="0.25" stroke-linecap="round" stroke-linejoin="round"></path><path d="M6.611,31.112c0,0 1.677,-2.63 5.603,-2.699" fill="none" stroke="#ffffff" stroke-width="0.25" stroke-linecap="round" stroke-linejoin="round"></path><path d="M8.202,32.128c0,0 0.721,-2.346 4.547,-2.757" fill="none" stroke="#ffffff" stroke-width="0.25" stroke-linecap="round" stroke-linejoin="round"></path><path d="M10.095,33.307c0,0 1.962,-2.661 3.95,-3.028" fill="none" stroke="#ffffff" stroke-width="0.25" stroke-linecap="round" stroke-linejoin="round"></path><path d="M12.82,33.182c0,0 0.966,-2.143 2.479,-2.069" fill="none" stroke="#ffffff" stroke-width="0.25" stroke-linecap="round" stroke-linejoin="round"></path><path d="M31.871,17.692c0,0 -0.767,0.278 -1.584,0.148c0,0 0.119,0.781 -0.884,1.319c0,0 1.133,1.337 -0.576,1.82c0,0 -0.13,0.724 -0.891,0.984c0,0 -0.019,1.207 1.337,0.947c0,0 -0.111,1.456 1.467,1.09c0,0 0.546,1.626 1.898,1.456" fill="none" stroke="#ffffff" stroke-width="0.25" stroke-linecap="round" stroke-linejoin="round"></path><path d="M36.618,19.73c0,0 -1.656,-1.038 -1.338,-2.342" fill="none" stroke="#ffffff" stroke-width="0.25" stroke-linecap="round" stroke-linejoin="round"></path></g></g></svg>