<svg xmlns="http://www.w3.org/2000/svg"  viewBox="0 0 48 48" width="50px" height="50px"><path d="M 33 3.0390625 C 32.814753 3.0392131 32.630179 3.0530527 32.447266 3.0800781 C 31.715612 3.1881799 31.014962 3.508557 30.447266 4.0253906 C 27.129716 7.0481736 21.171318 12.472895 15.804688 17.359375 L 10.267578 13.140625 L 10.255859 13.132812 C 8.9912527 12.206132 7.306094 12.329086 6.1269531 13.169922 L 6.1269531 13.171875 L 6.125 13.171875 C 5.7319317 13.452999 5.3342485 13.815685 4.9414062 14.167969 C 4.5485641 14.520252 4.2167969 14.828125 4.2167969 14.828125 L 4.3007812 14.755859 C 2.6734115 16.058454 2.5851621 18.572901 4.1191406 19.986328 L 4.1230469 19.990234 L 8.5214844 23.992188 C 6.2646771 26.046566 4.125 27.994141 4.125 27.994141 L 4.1210938 27.998047 L 4.1171875 28 C 2.5847515 29.413751 2.6739222 31.928283 4.3007812 33.230469 L 4.2167969 33.158203 C 4.2167969 33.158203 4.5484003 33.465685 4.9414062 33.818359 C 5.3340336 34.170694 5.7295564 34.533488 6.1269531 34.816406 C 7.306094 35.657242 8.9912517 35.78214 10.255859 34.855469 L 10.267578 34.847656 L 15.814453 30.626953 L 30.457031 43.945312 C 31.595361 44.981802 33.264797 45.230627 34.65625 44.560547 C 37.316176 43.280583 41.15151 41.432827 42.75 40.662109 C 44.128458 39.998467 45.007813 38.594443 45.007812 37.068359 L 45.007812 10.871094 C 45.007812 9.3405295 44.123827 7.9350453 42.740234 7.2753906 L 42.738281 7.2753906 C 41.246055 6.5627804 37.572971 4.810824 34.634766 3.4082031 C 34.115145 3.1600903 33.555742 3.0386106 33 3.0390625 z M 32 6.671875 L 32 14.539062 L 22.044922 22.115234 L 18.230469 19.208984 C 23.301245 14.591913 28.727938 9.6529673 32 6.671875 z M 35 6.90625 C 37.48045 8.0901335 40.261619 9.416238 41.447266 9.9824219 C 41.792887 10.147042 42.007812 10.486163 42.007812 10.871094 L 42.007812 37.068359 C 42.007812 37.454276 41.794761 37.792627 41.449219 37.958984 C 40.177511 38.572144 37.387973 39.914884 35 41.064453 L 35 6.90625 z M 8.2128906 15.470703 C 8.3144296 15.464045 8.4037259 15.49507 8.4824219 15.552734 L 32 33.474609 L 32 41.292969 L 6.1523438 17.78125 C 5.9303223 17.576677 5.939151 17.287062 6.1757812 17.097656 L 6.21875 17.0625 L 6.2597656 17.025391 C 6.2597656 17.025391 6.5754047 16.73406 6.9453125 16.402344 C 7.3143838 16.071377 7.7935376 15.667624 7.8691406 15.613281 C 7.9975702 15.521699 8.1113517 15.477361 8.2128906 15.470703 z M 32 18.310547 L 32 29.703125 L 24.519531 24.001953 L 32 18.310547 z M 10.75 26.019531 L 13.558594 28.572266 L 8.4824219 32.435547 C 8.32503 32.550879 8.1259997 32.556211 7.8691406 32.373047 L 7.8671875 32.373047 C 7.7969672 32.323085 7.3148064 31.917513 6.9453125 31.585938 C 6.5758186 31.254362 6.2617188 30.962891 6.2617188 30.962891 L 6.2207031 30.923828 L 6.1757812 30.888672 C 5.9386408 30.698858 5.9287798 30.411327 6.1523438 30.205078 C 6.1579876 30.19994 8.311359 28.239472 10.75 26.019531 z"/></svg>